<?xml version="1.0" encoding="iso-8859-1"?>
<!-- Uploaded to: SVG Repo, www.svgrepo.com, Generator: SVG Repo Mixer Tools -->
<svg height="800px" width="800px" version="1.1" id="Layer_1" xmlns="http://www.w3.org/2000/svg" xmlns:xlink="http://www.w3.org/1999/xlink" 
	 viewBox="0 0 512 512" xml:space="preserve">
<path style="fill:#5286FA;" d="M501.593,105.677c-6.469-3.997-14.547-4.362-21.35-0.96L367.85,160.92H256V95.092
	c0-12.118-9.825-21.943-21.943-21.943H43.886v-7.314c0-12.118-9.825-21.943-21.943-21.943S0,53.716,0,65.834v29.257v87.771v29.257
	c0,12.118,9.825,21.943,21.943,21.943s21.943-9.825,21.943-21.943v-7.314h43.886v153.59c0,11.712,9.181,21.251,20.736,21.883
	l24.276,72.827c2.987,8.961,11.372,15.004,20.816,15.004h175.543c9.444,0,17.829-6.043,20.816-15.004l23.346-70.039l106.939,53.469
	c3.097,1.549,6.459,2.316,9.811,2.316c4.013,0,8.015-1.099,11.538-3.277c6.47-3.998,10.407-11.062,10.407-18.666V124.343
	C512,116.737,508.062,109.675,501.593,105.677z"/>
<g>
	<path style="fill:#3D6DEB;" d="M501.593,105.677c-6.469-3.997-14.547-4.362-21.35-0.96L367.85,160.92l-4.636,2.319
		c-7.433,3.717-12.127,11.314-12.129,19.624v0.001v21.941v131.647v21.943c0,4.236,1.224,8.283,3.404,11.729
		c2.099,3.315,5.081,6.074,8.726,7.896l4.633,2.317h-16.763h-23.129H154.788h-23.131h-21.943c-0.407,0-0.806-0.04-1.207-0.06
		l24.276,72.827c2.987,8.961,11.372,15.004,20.816,15.004h175.543c9.444,0,17.831-6.043,20.816-15.004l23.346-70.039l106.938,53.469
		c3.097,1.549,6.459,2.316,9.811,2.316c4.013,0,8.015-1.099,11.538-3.277c6.47-3.998,10.407-11.062,10.407-18.666V124.341
		C512,116.737,508.062,109.675,501.593,105.677z"/>
	<path style="fill:#3D6DEB;" d="M131.657,204.804h102.4c12.118,0,21.943-9.825,21.943-21.943v-21.943V95.09
		c0-12.118-9.825-21.943-21.943-21.943H43.886v-7.314c0-12.118-9.825-21.943-21.943-21.943S0,53.715,0,65.833V95.09v87.771v29.257
		c0,12.118,9.825,21.943,21.943,21.943s21.943-9.825,21.943-21.943v-7.314h43.886h21.943H131.657z"/>
</g>
</svg>